# xmcd
# 
# Track frame offsets:
#     150
#     20719
#     58877
#     99418
#     117379
#     120835
#     124354
#     144489
#     153967
#     159712
# 
# Disc length: 2628
# 
# Revision: 1
# Processed by: cddbd v1.5.2PL0 Copyright (c) Steve Scherf et al.
# Submitted via: fre:ac v1.0.31
# 
DISCID=870a420a
DTITLE=Yussef Kamaal - BLACK FOCUS
DYEAR=2018
DGENRE=Jazz
TTITLE0=BLACK FOCUS
TTITLE1=STRINGS OF LIGHT
TTITLE2=REMEMBRANCE
TTITLE3=YO CHAVEZ
TTITLE4=AYLA
TTITLE5=O.G.
TTITLE6=LOWRIDER
TTITLE7=MANSUR'S MESSAGE
TTITLE8=WING TAI DRUMS
TTITLE9=JOINT 17
EXTD=
EXTT0=
EXTT1=
EXTT2=
EXTT3=
EXTT4=
EXTT5=
EXTT6=
EXTT7=
EXTT8=
EXTT9=
PLAYORDER=
